<?xml version="1.0" encoding="utf-8"?>
<!-- Generator: Adobe Illustrator 25.0.1, SVG Export Plug-In . SVG Version: 6.00 Build 0)  -->
<svg version="1.1" id="Layer_1" xmlns="http://www.w3.org/2000/svg" xmlns:xlink="http://www.w3.org/1999/xlink" x="0px" y="0px"
	 viewBox="0 0 595.3 841.9" style="enable-background:new 0 0 595.3 841.9;" xml:space="preserve">
<style type="text/css">
	.st0{fill:#B5A2CD;}
	.st1{fill:#FFFFFF;}
</style>
<polygon class="st0" points="219.3,515.1 196.8,674.8 342.2,613.6 315.8,754.2 "/>
<g>
	<g>
		<path class="st0" d="M229.5,679.2c3.5,0.6,6.3,2.3,6.3,5.8c0,2.5-1.4,4.4-3.5,5.6c-1.9,1.1-3.7,1.4-6.3,1.4h-8.9v-1
			c3.1-0.3,3.3-0.6,3.3-3.5v-14.6c0-3-0.3-3.3-3.3-3.5v-1h9.5c2.7,0,4.4,0.5,5.6,1.3c1.3,0.9,2.1,2.2,2.1,4.1
			C234.3,677.1,231.5,678.7,229.5,679.2z M225.3,678.8c4,0,5.6-1.6,5.6-4.6c0-2.5-1.6-4.5-5-4.5c-1,0-1.7,0.1-2,0.4
			c-0.3,0.2-0.4,0.6-0.4,1.8v6.9H225.3z M223.5,687.4c0,2.6,0.6,3.3,3.2,3.3c2.8,0,5.6-1.5,5.6-5.3c0-3.7-2.6-5.3-7-5.3h-1.7V687.4z
			"/>
		<path class="st0" d="M246.3,692v-1c2.3-0.2,2.6-0.4,2.6-2.8v-17.4c0-2.2-0.2-2.4-2.5-2.7v-0.9c2-0.2,4.2-0.8,5.4-1.2
			c0,1.7,0,3.5,0,5.2v17.1c0,2.4,0.2,2.6,2.6,2.8v1H246.3z"/>
		<path class="st0" d="M273,675.6c4.5,0,7.9,3.5,7.9,8.1c0,5.9-4.4,8.7-7.9,8.7c-5,0-8.1-4-8.1-8.1
			C264.9,678.4,269.5,675.6,273,675.6z M272.6,676.8c-2.2,0-4.2,2.1-4.2,6.4c0,4.6,2,8,5,8c2.3,0,4.1-1.6,4.1-6.6
			C277.5,680.3,275.8,676.8,272.6,676.8z"/>
		<path class="st1" d="M301.5,680.4c-0.7-2.1-1.6-3.6-3.8-3.6c-1.3,0-2.3,0.9-2.3,2.4c0,1.6,1.1,2.3,3.1,3.2c3.1,1.5,4.7,2.6,4.7,5
			c0,3.3-3.1,5-5.9,5c-1.9,0-3.6-0.6-4.3-1c-0.2-1.1-0.5-3.1-0.7-4.3l1.1-0.2c0.7,2.3,1.9,4.2,4.5,4.2c1.4,0,2.5-0.9,2.5-2.5
			c0-1.6-1-2.5-2.9-3.4c-2.5-1.2-4.6-2.4-4.6-5c0-2.7,2.3-4.7,5.7-4.7c1.5,0,2.8,0.4,3.5,0.5c0.1,0.9,0.4,3.2,0.5,4L301.5,680.4z"/>
		<path class="st1" d="M323.5,680.4c-0.7-2.1-1.6-3.6-3.8-3.6c-1.3,0-2.3,0.9-2.3,2.4c0,1.6,1.1,2.3,3.1,3.2c3.1,1.5,4.7,2.6,4.7,5
			c0,3.3-3.1,5-5.9,5c-1.9,0-3.6-0.6-4.3-1c-0.2-1.1-0.5-3.1-0.7-4.3l1.1-0.2c0.7,2.3,1.9,4.2,4.5,4.2c1.4,0,2.5-0.9,2.5-2.5
			c0-1.6-1-2.5-2.9-3.4c-2.5-1.2-4.6-2.4-4.6-5c0-2.7,2.3-4.7,5.7-4.7c1.5,0,2.8,0.4,3.5,0.5c0.1,0.9,0.4,3.2,0.5,4L323.5,680.4z"/>
		<path class="st0" d="M351.9,677c-1.9,0.3-2.3,0.6-3.2,2.7c-0.9,2-1.9,4.5-4.4,10.8c-2.4,5.8-3,8.1-3.6,10
			c-0.2,0.8-0.6,0.9-1.1,0.9c-1.2,0-2.2-0.8-2.2-1.7c0-0.5,0.3-0.8,0.8-1.3c1.2-0.9,2-1.8,2.4-2.7c0.8-1.5,1.3-2.8,1.5-3.3
			c0.1-0.5,0.1-0.9-0.1-1.5c-1.4-4.1-3.4-8.6-4.5-11.2c-0.8-2-1.1-2.4-3.1-2.7v-1h7.3v1c-1.7,0.3-1.9,0.6-1.4,2l3.5,8.9
			c1-2.5,2.5-6.5,3.2-8.8c0.4-1.4,0.2-1.8-1.9-2.1v-1h6.6V677z"/>
	</g>
</g>
</svg>
