<svg width="42" height="42" viewBox="0 0 42 42" fill="none" xmlns="http://www.w3.org/2000/svg">
<path d="M21 0C15.2912 0 14.5798 0.027566 12.3456 0.122078C10.1023 0.232342 8.58482 0.580198 7.24591 1.10001C5.86498 1.64083 4.68884 2.35886 3.52713 3.52713C2.35754 4.68884 1.63295 5.86498 1.10001 7.24591C0.580198 8.58482 0.232342 10.1023 0.122078 12.3456C0.0210026 14.5811 0 15.2912 0 21C0 26.7088 0.027566 27.4202 0.122078 29.6544C0.232342 31.8912 0.580198 33.4152 1.10001 34.7541C1.64083 36.135 2.35886 37.3112 3.52713 38.4729C4.68884 39.6425 5.86498 40.3671 7.24591 40.9C8.58482 41.4132 10.1088 41.7677 12.3456 41.8779C14.5811 41.979 15.2912 42 21 42C26.7088 42 27.4202 41.9724 29.6544 41.8779C31.8912 41.7677 33.4152 41.4119 34.7541 40.9C36.135 40.3592 37.3112 39.6411 38.4729 38.4729C39.6425 37.3112 40.367 36.1416 40.9 34.7541C41.4132 33.4152 41.7677 31.8912 41.8779 29.6544C41.979 27.4189 42 26.7088 42 21C42 15.2912 41.9724 14.5798 41.8779 12.3456C41.7677 10.1088 41.4119 8.57695 40.9 7.24591C40.3592 5.86498 39.6411 4.68884 38.4729 3.52713C37.3112 2.35754 36.1416 1.63295 34.7541 1.10001C33.4152 0.580198 31.8912 0.232342 29.6544 0.122078C27.4189 0.0210026 26.7088 0 21 0ZM21 3.78047C26.6064 3.78047 27.2758 3.80804 29.4916 3.90255C31.5354 3.99838 32.6486 4.33967 33.3876 4.62845C34.3734 5.01044 35.0626 5.462 35.8082 6.19971C36.5393 6.93087 36.9909 7.62789 37.3729 8.6137C37.6616 9.35273 38.0029 10.4659 38.0988 12.5097C38.1933 14.7255 38.2208 15.3962 38.2208 21.0013C38.2208 26.6064 38.1933 27.2772 38.0909 29.4929C37.9806 31.5368 37.6393 32.6499 37.3519 33.3889C36.9541 34.3747 36.5104 35.0639 35.778 35.8095C35.0389 36.5406 34.3354 36.9922 33.3574 37.3742C32.6276 37.663 31.4987 38.0043 29.447 38.1001C27.2194 38.1946 26.5631 38.2222 20.9422 38.2222C15.3214 38.2222 14.6664 38.1946 12.4362 38.0922C10.3924 37.9819 9.26478 37.6406 8.52575 37.3532C7.52813 36.9554 6.84423 36.5118 6.11176 35.7793C5.37273 35.0403 4.9028 34.3367 4.5405 33.3587C4.24647 32.6289 3.91043 31.5 3.80148 29.4483C3.72665 27.247 3.69121 26.5644 3.69121 20.9698C3.69121 15.3779 3.72665 14.694 3.80148 12.4651C3.91043 10.4134 4.24647 9.2871 4.5405 8.55463C4.9028 7.5557 5.37405 6.87311 6.11176 6.13408C6.84292 5.40293 7.52813 4.93037 8.52575 4.5602C9.26478 4.27272 10.3648 3.93143 12.4165 3.82904C14.6441 3.74897 15.3004 3.72009 20.9134 3.72009L21 3.78047ZM21 10.2217C15.0392 10.2217 10.2191 15.0484 10.2191 21.0026C10.2191 26.9634 15.0458 31.7835 21 31.7835C26.9608 31.7835 31.7809 26.9569 31.7809 21.0026C31.7809 15.0418 26.9542 10.2217 21 10.2217ZM21 28.0031C17.1303 28.0031 13.9996 24.8724 13.9996 21.0026C13.9996 17.1329 17.1303 14.0022 21 14.0022C24.8697 14.0022 28.0004 17.1329 28.0004 21.0026C28.0004 24.8724 24.8697 28.0031 21 28.0031ZM34.7357 9.79116C34.7357 11.1865 33.6003 12.3128 32.2115 12.3128C30.8161 12.3128 29.6898 11.1852 29.6898 9.79116C29.6898 8.40368 30.824 7.27478 32.2115 7.27478C33.5989 7.27478 34.7357 8.40368 34.7357 9.79116Z" fill="white"/>
</svg>
