<svg width="523" height="152" viewBox="0 0 523 152" fill="none" xmlns="http://www.w3.org/2000/svg">
<path d="M16.9062 25.25L30.25 0.3125H33.7812L18.5625 28.3438V46H15.3438V28.5938L0 0.3125H3.5625L16.9062 25.25ZM63.9625 11.4375C67.6917 11.4375 70.4833 12.375 72.3375 14.25C74.1917 16.125 75.1188 19.1146 75.1188 23.2188V46H72.6813L72.1188 40.0625H71.9313C71.2021 41.3333 70.3167 42.4688 69.275 43.4688C68.2333 44.4479 66.9521 45.2188 65.4313 45.7812C63.9313 46.3438 62.0979 46.625 59.9313 46.625C57.7438 46.625 55.8688 46.2604 54.3063 45.5312C52.7646 44.8021 51.5667 43.7396 50.7125 42.3438C49.8792 40.9479 49.4625 39.25 49.4625 37.25C49.4625 33.875 50.8583 31.3125 53.65 29.5625C56.4417 27.7917 60.4521 26.7917 65.6813 26.5625L71.9938 26.25V23.7812C71.9938 20.3021 71.3063 17.8229 69.9313 16.3438C68.5563 14.8646 66.525 14.125 63.8375 14.125C62.0875 14.125 60.4 14.3542 58.775 14.8125C57.1708 15.25 55.5354 15.8854 53.8688 16.7188L52.8688 14.0938C54.4938 13.3229 56.2333 12.6875 58.0875 12.1875C59.9625 11.6875 61.9208 11.4375 63.9625 11.4375ZM71.9625 28.7188L66.025 28.9688C61.7125 29.1771 58.4313 29.9479 56.1813 31.2812C53.9313 32.6146 52.8063 34.6146 52.8063 37.2812C52.8063 39.4271 53.4729 41.0729 54.8063 42.2188C56.1604 43.3646 58.0354 43.9375 60.4313 43.9375C64.1604 43.9375 67.0042 42.875 68.9625 40.75C70.9417 38.625 71.9417 35.7292 71.9625 32.0625V28.7188ZM113.644 11.375C117.456 11.375 120.383 12.375 122.425 14.375C124.467 16.375 125.488 19.5104 125.488 23.7812V46H122.363V23.9688C122.363 20.5938 121.592 18.1146 120.05 16.5312C118.508 14.9479 116.269 14.1562 113.331 14.1562C109.602 14.1562 106.748 15.25 104.769 17.4375C102.81 19.6042 101.831 22.8854 101.831 27.2812V46H98.675V12.0312H101.238L101.706 18.2188H101.894C102.498 16.9479 103.321 15.8021 104.363 14.7812C105.425 13.7396 106.727 12.9167 108.269 12.3125C109.81 11.6875 111.602 11.375 113.644 11.375ZM184.238 33.1562V46H182.293V33.1562H184.238ZM183.289 28.3516C183.609 28.3516 183.883 28.457 184.109 28.668C184.344 28.8711 184.461 29.1914 184.461 29.6289C184.461 30.0586 184.344 30.3789 184.109 30.5898C183.883 30.8008 183.609 30.9062 183.289 30.9062C182.953 30.9062 182.672 30.8008 182.445 30.5898C182.227 30.3789 182.117 30.0586 182.117 29.6289C182.117 29.1914 182.227 28.8711 182.445 28.668C182.672 28.457 182.953 28.3516 183.289 28.3516ZM209.322 42.4844C209.322 43.3047 209.115 43.9961 208.701 44.5586C208.295 45.1133 207.709 45.5312 206.943 45.8125C206.185 46.0938 205.279 46.2344 204.224 46.2344C203.326 46.2344 202.548 46.1641 201.892 46.0234C201.236 45.8828 200.662 45.6836 200.17 45.4258V43.6328C200.693 43.8906 201.318 44.125 202.045 44.3359C202.771 44.5469 203.513 44.6523 204.271 44.6523C205.38 44.6523 206.185 44.4727 206.685 44.1133C207.185 43.7539 207.435 43.2656 207.435 42.6484C207.435 42.2969 207.334 41.9883 207.13 41.7227C206.935 41.4492 206.603 41.1875 206.134 40.9375C205.666 40.6797 205.017 40.3984 204.189 40.0938C203.369 39.7812 202.658 39.4727 202.056 39.168C201.462 38.8555 201.002 38.4766 200.673 38.0312C200.353 37.5859 200.193 37.0078 200.193 36.2969C200.193 35.2109 200.63 34.3789 201.505 33.8008C202.388 33.2148 203.545 32.9219 204.974 32.9219C205.748 32.9219 206.47 33 207.142 33.1562C207.822 33.3047 208.455 33.5078 209.041 33.7656L208.384 35.3242C207.853 35.0977 207.287 34.9062 206.685 34.75C206.084 34.5938 205.47 34.5156 204.845 34.5156C203.947 34.5156 203.255 34.6641 202.771 34.9609C202.295 35.2578 202.056 35.6641 202.056 36.1797C202.056 36.5781 202.166 36.9062 202.384 37.1641C202.611 37.4219 202.97 37.6641 203.462 37.8906C203.955 38.1172 204.603 38.3828 205.408 38.6875C206.212 38.9844 206.908 39.293 207.494 39.6133C208.08 39.9258 208.529 40.3086 208.841 40.7617C209.162 41.207 209.322 41.7812 209.322 42.4844ZM267.674 32.9453C269.205 32.9453 270.342 33.2891 271.084 33.9766C271.827 34.6641 272.198 35.7617 272.198 37.2695V46H270.78L270.405 44.1016H270.311C269.952 44.5703 269.577 44.9648 269.186 45.2852C268.795 45.5977 268.342 45.8359 267.827 46C267.319 46.1562 266.694 46.2344 265.952 46.2344C265.17 46.2344 264.475 46.0977 263.866 45.8242C263.264 45.5508 262.788 45.1367 262.436 44.582C262.092 44.0273 261.92 43.3242 261.92 42.4727C261.92 41.1914 262.428 40.207 263.444 39.5195C264.459 38.832 266.006 38.457 268.084 38.3945L270.299 38.3008V37.5156C270.299 36.4062 270.061 35.6289 269.584 35.1836C269.108 34.7383 268.436 34.5156 267.569 34.5156C266.897 34.5156 266.256 34.6133 265.647 34.8086C265.038 35.0039 264.459 35.2344 263.913 35.5L263.315 34.0234C263.893 33.7266 264.557 33.4727 265.307 33.2617C266.057 33.0508 266.846 32.9453 267.674 32.9453ZM270.276 39.6719L268.319 39.7539C266.717 39.8164 265.588 40.0781 264.932 40.5391C264.276 41 263.948 41.6523 263.948 42.4961C263.948 43.2305 264.17 43.7734 264.616 44.125C265.061 44.4766 265.651 44.6523 266.385 44.6523C267.526 44.6523 268.459 44.3359 269.186 43.7031C269.913 43.0703 270.276 42.1211 270.276 40.8555V39.6719ZM294.938 32.9219C296.461 32.9219 297.613 33.2969 298.395 34.0469C299.176 34.7891 299.566 35.9844 299.566 37.6328V46H297.645V37.7617C297.645 36.6914 297.398 35.8906 296.906 35.3594C296.422 34.8281 295.676 34.5625 294.668 34.5625C293.246 34.5625 292.246 34.9648 291.668 35.7695C291.09 36.5742 290.801 37.7422 290.801 39.2734V46H288.855V33.1562H290.426L290.719 35.0078H290.824C291.098 34.5547 291.445 34.1758 291.867 33.8711C292.289 33.5586 292.762 33.3242 293.285 33.168C293.809 33.0039 294.359 32.9219 294.938 32.9219ZM365.032 46L362.923 40.5625H356.055L353.958 46H351.942L358.645 28.7969H360.438L367.095 46H365.032ZM362.325 38.793L360.321 33.3906C360.274 33.25 360.196 33.0195 360.087 32.6992C359.985 32.3789 359.88 32.0469 359.77 31.7031C359.661 31.3594 359.571 31.082 359.501 30.8711C359.423 31.1914 359.337 31.5117 359.243 31.832C359.157 32.1445 359.071 32.4375 358.985 32.7109C358.899 32.9766 358.825 33.2031 358.762 33.3906L356.723 38.793H362.325ZM387.666 32.9219C387.924 32.9219 388.194 32.9375 388.475 32.9688C388.756 32.9922 389.006 33.0273 389.225 33.0742L388.979 34.8789C388.768 34.8242 388.534 34.7812 388.276 34.75C388.018 34.7188 387.776 34.7031 387.549 34.7031C387.034 34.7031 386.545 34.8086 386.084 35.0195C385.631 35.2227 385.233 35.5195 384.889 35.9102C384.545 36.293 384.276 36.7578 384.08 37.3047C383.885 37.8438 383.788 38.4453 383.788 39.1094V46H381.83V33.1562H383.448L383.659 35.5234H383.741C384.006 35.0469 384.327 34.6133 384.702 34.2227C385.077 33.8242 385.51 33.5078 386.002 33.2734C386.502 33.0391 387.057 32.9219 387.666 32.9219ZM408.449 44.6406C408.77 44.6406 409.098 44.6133 409.434 44.5586C409.77 44.5039 410.043 44.4375 410.254 44.3594V45.8711C410.027 45.9727 409.711 46.0586 409.305 46.1289C408.906 46.1992 408.516 46.2344 408.133 46.2344C407.453 46.2344 406.836 46.1172 406.281 45.8828C405.727 45.6406 405.281 45.2344 404.945 44.6641C404.617 44.0938 404.453 43.3047 404.453 42.2969V34.6797H402.625V33.7305L404.465 32.9688L405.238 30.1797H406.41V33.1562H410.172V34.6797H406.41V42.2383C406.41 43.043 406.594 43.6445 406.961 44.043C407.336 44.4414 407.832 44.6406 408.449 44.6406ZM427.451 33.1562V46H425.505V33.1562H427.451ZM426.502 28.3516C426.822 28.3516 427.095 28.457 427.322 28.668C427.556 28.8711 427.673 29.1914 427.673 29.6289C427.673 30.0586 427.556 30.3789 427.322 30.5898C427.095 30.8008 426.822 30.9062 426.502 30.9062C426.166 30.9062 425.884 30.8008 425.658 30.5898C425.439 30.3789 425.33 30.0586 425.33 29.6289C425.33 29.1914 425.439 28.8711 425.658 28.668C425.884 28.457 426.166 28.3516 426.502 28.3516ZM452.534 42.4844C452.534 43.3047 452.327 43.9961 451.913 44.5586C451.507 45.1133 450.921 45.5312 450.155 45.8125C449.398 46.0938 448.491 46.2344 447.437 46.2344C446.538 46.2344 445.761 46.1641 445.105 46.0234C444.448 45.8828 443.874 45.6836 443.382 45.4258V43.6328C443.905 43.8906 444.53 44.125 445.257 44.3359C445.984 44.5469 446.726 44.6523 447.484 44.6523C448.593 44.6523 449.398 44.4727 449.898 44.1133C450.398 43.7539 450.648 43.2656 450.648 42.6484C450.648 42.2969 450.546 41.9883 450.343 41.7227C450.148 41.4492 449.816 41.1875 449.347 40.9375C448.878 40.6797 448.23 40.3984 447.402 40.0938C446.581 39.7812 445.87 39.4727 445.269 39.168C444.675 38.8555 444.214 38.4766 443.886 38.0312C443.566 37.5859 443.405 37.0078 443.405 36.2969C443.405 35.2109 443.843 34.3789 444.718 33.8008C445.601 33.2148 446.757 32.9219 448.187 32.9219C448.96 32.9219 449.683 33 450.355 33.1562C451.034 33.3047 451.667 33.5078 452.253 33.7656L451.597 35.3242C451.066 35.0977 450.499 34.9062 449.898 34.75C449.296 34.5938 448.683 34.5156 448.058 34.5156C447.159 34.5156 446.468 34.6641 445.984 34.9609C445.507 35.2578 445.269 35.6641 445.269 36.1797C445.269 36.5781 445.378 36.9062 445.597 37.1641C445.823 37.4219 446.183 37.6641 446.675 37.8906C447.167 38.1172 447.816 38.3828 448.62 38.6875C449.425 38.9844 450.12 39.293 450.706 39.6133C451.292 39.9258 451.741 40.3086 452.054 40.7617C452.374 41.207 452.534 41.7812 452.534 42.4844ZM472.462 44.6406C472.782 44.6406 473.11 44.6133 473.446 44.5586C473.782 44.5039 474.055 44.4375 474.266 44.3594V45.8711C474.04 45.9727 473.723 46.0586 473.317 46.1289C472.919 46.1992 472.528 46.2344 472.145 46.2344C471.466 46.2344 470.848 46.1172 470.294 45.8828C469.739 45.6406 469.294 45.2344 468.958 44.6641C468.63 44.0938 468.466 43.3047 468.466 42.2969V34.6797H466.637V33.7305L468.477 32.9688L469.251 30.1797H470.423V33.1562H474.184V34.6797H470.423V42.2383C470.423 43.043 470.606 43.6445 470.973 44.043C471.348 44.4414 471.845 44.6406 472.462 44.6406ZM489.225 44.7812C489.225 44.2344 489.358 43.8477 489.623 43.6211C489.889 43.3867 490.213 43.2695 490.596 43.2695C490.995 43.2695 491.33 43.3867 491.604 43.6211C491.877 43.8477 492.014 44.2344 492.014 44.7812C492.014 45.3203 491.877 45.7148 491.604 45.9648C491.33 46.207 490.995 46.3281 490.596 46.3281C490.213 46.3281 489.889 46.207 489.623 45.9648C489.358 45.7148 489.225 45.3203 489.225 44.7812ZM129.255 87.2695C129.255 89.1992 128.904 90.8125 128.201 92.1094C127.498 93.3984 126.478 94.3711 125.142 95.0273C123.814 95.6758 122.201 96 120.302 96H115.65V78.8672H120.818C122.56 78.8672 124.06 79.1875 125.318 79.8281C126.576 80.4609 127.545 81.4023 128.224 82.6523C128.912 83.8945 129.255 85.4336 129.255 87.2695ZM127.158 87.3398C127.158 85.8008 126.9 84.5312 126.384 83.5312C125.877 82.5312 125.127 81.7891 124.134 81.3047C123.15 80.8125 121.943 80.5664 120.513 80.5664H117.642V94.2891H120.068C122.427 94.2891 124.197 93.707 125.377 92.543C126.564 91.3789 127.158 89.6445 127.158 87.3398ZM150.366 82.9219C151.46 82.9219 152.398 83.1641 153.179 83.6484C153.96 84.1328 154.558 84.8125 154.972 85.6875C155.386 86.5547 155.593 87.5703 155.593 88.7344V89.9414H146.722C146.745 91.4492 147.12 92.5977 147.847 93.3867C148.573 94.1758 149.597 94.5703 150.917 94.5703C151.73 94.5703 152.448 94.4961 153.073 94.3477C153.698 94.1992 154.347 93.9805 155.019 93.6914V95.4023C154.37 95.6914 153.726 95.9023 153.085 96.0352C152.452 96.168 151.702 96.2344 150.835 96.2344C149.601 96.2344 148.523 95.9844 147.601 95.4844C146.687 94.9766 145.976 94.2344 145.468 93.2578C144.96 92.2812 144.706 91.0859 144.706 89.6719C144.706 88.2891 144.937 87.0938 145.398 86.0859C145.866 85.0703 146.523 84.2891 147.366 83.7422C148.218 83.1953 149.218 82.9219 150.366 82.9219ZM150.343 84.5156C149.304 84.5156 148.476 84.8555 147.859 85.5352C147.241 86.2148 146.874 87.1641 146.757 88.3828H153.554C153.546 87.6172 153.425 86.9453 153.191 86.3672C152.964 85.7812 152.616 85.3281 152.148 85.0078C151.679 84.6797 151.077 84.5156 150.343 84.5156ZM179.856 92.4844C179.856 93.3047 179.649 93.9961 179.235 94.5586C178.829 95.1133 178.243 95.5312 177.477 95.8125C176.72 96.0938 175.813 96.2344 174.759 96.2344C173.86 96.2344 173.083 96.1641 172.427 96.0234C171.77 95.8828 171.196 95.6836 170.704 95.4258V93.6328C171.227 93.8906 171.852 94.125 172.579 94.3359C173.305 94.5469 174.048 94.6523 174.805 94.6523C175.915 94.6523 176.72 94.4727 177.22 94.1133C177.72 93.7539 177.97 93.2656 177.97 92.6484C177.97 92.2969 177.868 91.9883 177.665 91.7227C177.47 91.4492 177.137 91.1875 176.669 90.9375C176.2 90.6797 175.552 90.3984 174.723 90.0938C173.903 89.7812 173.192 89.4727 172.591 89.168C171.997 88.8555 171.536 88.4766 171.208 88.0312C170.887 87.5859 170.727 87.0078 170.727 86.2969C170.727 85.2109 171.165 84.3789 172.04 83.8008C172.923 83.2148 174.079 82.9219 175.509 82.9219C176.282 82.9219 177.005 83 177.677 83.1562C178.356 83.3047 178.989 83.5078 179.575 83.7656L178.919 85.3242C178.387 85.0977 177.821 84.9062 177.22 84.75C176.618 84.5938 176.005 84.5156 175.38 84.5156C174.481 84.5156 173.79 84.6641 173.305 84.9609C172.829 85.2578 172.591 85.6641 172.591 86.1797C172.591 86.5781 172.7 86.9062 172.919 87.1641C173.145 87.4219 173.505 87.6641 173.997 87.8906C174.489 88.1172 175.137 88.3828 175.942 88.6875C176.747 88.9844 177.442 89.293 178.028 89.6133C178.614 89.9258 179.063 90.3086 179.376 90.7617C179.696 91.207 179.856 91.7812 179.856 92.4844ZM197.58 83.1562V96H195.635V83.1562H197.58ZM196.631 78.3516C196.952 78.3516 197.225 78.457 197.452 78.668C197.686 78.8711 197.803 79.1914 197.803 79.6289C197.803 80.0586 197.686 80.3789 197.452 80.5898C197.225 80.8008 196.952 80.9062 196.631 80.9062C196.295 80.9062 196.014 80.8008 195.787 80.5898C195.569 80.3789 195.459 80.0586 195.459 79.6289C195.459 79.1914 195.569 78.8711 195.787 78.668C196.014 78.457 196.295 78.3516 196.631 78.3516ZM217.941 101.766C216.254 101.766 214.953 101.449 214.039 100.816C213.125 100.191 212.668 99.3125 212.668 98.1797C212.668 97.375 212.922 96.6875 213.43 96.1172C213.945 95.5469 214.656 95.168 215.562 94.9805C215.227 94.8242 214.938 94.5898 214.695 94.2773C214.461 93.9648 214.344 93.6055 214.344 93.1992C214.344 92.7305 214.473 92.3203 214.73 91.9688C214.996 91.6094 215.398 91.2656 215.938 90.9375C215.266 90.6641 214.719 90.2031 214.297 89.5547C213.883 88.8984 213.676 88.1367 213.676 87.2695C213.676 86.3477 213.867 85.5625 214.25 84.9141C214.633 84.2578 215.188 83.7578 215.914 83.4141C216.641 83.0703 217.52 82.8984 218.551 82.8984C218.777 82.8984 219.004 82.9102 219.23 82.9336C219.465 82.9492 219.688 82.9766 219.898 83.0156C220.109 83.0469 220.293 83.0859 220.449 83.1328H224.855V84.3867L222.488 84.6797C222.723 84.9844 222.918 85.3516 223.074 85.7812C223.23 86.2109 223.309 86.6875 223.309 87.2109C223.309 88.4922 222.875 89.5117 222.008 90.2695C221.141 91.0195 219.949 91.3945 218.434 91.3945C218.074 91.3945 217.707 91.3633 217.332 91.3008C216.949 91.5117 216.656 91.7461 216.453 92.0039C216.258 92.2617 216.16 92.5586 216.16 92.8945C216.16 93.1445 216.234 93.3438 216.383 93.4922C216.539 93.6406 216.762 93.75 217.051 93.8203C217.34 93.8828 217.688 93.9141 218.094 93.9141H220.355C221.754 93.9141 222.824 94.207 223.566 94.793C224.316 95.3789 224.691 96.2344 224.691 97.3594C224.691 98.7812 224.113 99.8711 222.957 100.629C221.801 101.387 220.129 101.766 217.941 101.766ZM218 100.242C219.062 100.242 219.941 100.133 220.637 99.9141C221.34 99.7031 221.863 99.3945 222.207 98.9883C222.559 98.5898 222.734 98.1133 222.734 97.5586C222.734 97.043 222.617 96.6523 222.383 96.3867C222.148 96.1289 221.805 95.957 221.352 95.8711C220.898 95.7773 220.344 95.7305 219.688 95.7305H217.461C216.883 95.7305 216.379 95.8203 215.949 96C215.52 96.1797 215.188 96.4453 214.953 96.7969C214.727 97.1484 214.613 97.5859 214.613 98.1094C214.613 98.8047 214.906 99.332 215.492 99.6914C216.078 100.059 216.914 100.242 218 100.242ZM218.504 89.9766C219.434 89.9766 220.133 89.7422 220.602 89.2734C221.07 88.8047 221.305 88.1211 221.305 87.2227C221.305 86.2617 221.066 85.543 220.59 85.0664C220.113 84.582 219.41 84.3398 218.48 84.3398C217.59 84.3398 216.902 84.5898 216.418 85.0898C215.941 85.582 215.703 86.3047 215.703 87.2578C215.703 88.1328 215.945 88.8047 216.43 89.2734C216.914 89.7422 217.605 89.9766 218.504 89.9766ZM246.119 82.9219C247.642 82.9219 248.795 83.2969 249.576 84.0469C250.357 84.7891 250.748 85.9844 250.748 87.6328V96H248.826V87.7617C248.826 86.6914 248.58 85.8906 248.087 85.3594C247.603 84.8281 246.857 84.5625 245.849 84.5625C244.427 84.5625 243.427 84.9648 242.849 85.7695C242.271 86.5742 241.982 87.7422 241.982 89.2734V96H240.037V83.1562H241.607L241.9 85.0078H242.005C242.279 84.5547 242.627 84.1758 243.048 83.8711C243.47 83.5586 243.943 83.3242 244.466 83.168C244.99 83.0039 245.541 82.9219 246.119 82.9219ZM272.351 82.9219C273.445 82.9219 274.382 83.1641 275.163 83.6484C275.945 84.1328 276.542 84.8125 276.956 85.6875C277.37 86.5547 277.577 87.5703 277.577 88.7344V89.9414H268.706C268.73 91.4492 269.105 92.5977 269.831 93.3867C270.558 94.1758 271.581 94.5703 272.902 94.5703C273.714 94.5703 274.433 94.4961 275.058 94.3477C275.683 94.1992 276.331 93.9805 277.003 93.6914V95.4023C276.355 95.6914 275.71 95.9023 275.07 96.0352C274.437 96.168 273.687 96.2344 272.82 96.2344C271.585 96.2344 270.507 95.9844 269.585 95.4844C268.671 94.9766 267.96 94.2344 267.452 93.2578C266.945 92.2812 266.691 91.0859 266.691 89.6719C266.691 88.2891 266.921 87.0938 267.382 86.0859C267.851 85.0703 268.507 84.2891 269.351 83.7422C270.202 83.1953 271.202 82.9219 272.351 82.9219ZM272.327 84.5156C271.288 84.5156 270.46 84.8555 269.843 85.5352C269.226 86.2148 268.859 87.1641 268.741 88.3828H275.538C275.53 87.6172 275.409 86.9453 275.175 86.3672C274.948 85.7812 274.601 85.3281 274.132 85.0078C273.663 84.6797 273.062 84.5156 272.327 84.5156ZM299.368 82.9219C299.626 82.9219 299.895 82.9375 300.177 82.9688C300.458 82.9922 300.708 83.0273 300.927 83.0742L300.68 84.8789C300.47 84.8242 300.235 84.7812 299.977 84.75C299.72 84.7188 299.477 84.7031 299.251 84.7031C298.735 84.7031 298.247 84.8086 297.786 85.0195C297.333 85.2227 296.934 85.5195 296.591 85.9102C296.247 86.293 295.977 86.7578 295.782 87.3047C295.587 87.8438 295.489 88.4453 295.489 89.1094V96H293.532V83.1562H295.149L295.36 85.5234H295.442C295.708 85.0469 296.028 84.6133 296.403 84.2227C296.778 83.8242 297.212 83.5078 297.704 83.2734C298.204 83.0391 298.759 82.9219 299.368 82.9219ZM315.709 94.7812C315.709 94.2344 315.842 93.8477 316.108 93.6211C316.373 93.3867 316.698 93.2695 317.08 93.2695C317.479 93.2695 317.815 93.3867 318.088 93.6211C318.362 93.8477 318.498 94.2344 318.498 94.7812C318.498 95.3203 318.362 95.7148 318.088 95.9648C317.815 96.207 317.479 96.3281 317.08 96.3281C316.698 96.3281 316.373 96.207 316.108 95.9648C315.842 95.7148 315.709 95.3203 315.709 94.7812ZM79.8734 146H77.8812V128.867H87.4203V130.625H79.8734V136.906H86.9633V138.652H79.8734V146ZM104.582 133.156V146H102.637V133.156H104.582ZM103.633 128.352C103.953 128.352 104.227 128.457 104.453 128.668C104.688 128.871 104.805 129.191 104.805 129.629C104.805 130.059 104.688 130.379 104.453 130.59C104.227 130.801 103.953 130.906 103.633 130.906C103.297 130.906 103.016 130.801 102.789 130.59C102.57 130.379 102.461 130.059 102.461 129.629C102.461 129.191 102.57 128.871 102.789 128.668C103.016 128.457 103.297 128.352 103.633 128.352ZM123.314 146H121.357V127.766H123.314V146ZM154.023 132.922C155.437 132.922 156.503 133.293 157.222 134.035C157.941 134.77 158.3 135.953 158.3 137.586V146H156.378V137.68C156.378 136.641 156.152 135.863 155.698 135.348C155.253 134.824 154.589 134.562 153.706 134.562C152.464 134.562 151.562 134.922 150.999 135.641C150.437 136.359 150.155 137.418 150.155 138.816V146H148.222V137.68C148.222 136.984 148.12 136.406 147.917 135.945C147.722 135.484 147.425 135.141 147.027 134.914C146.636 134.68 146.14 134.562 145.538 134.562C144.687 134.562 144.003 134.738 143.488 135.09C142.972 135.441 142.597 135.965 142.363 136.66C142.136 137.348 142.023 138.195 142.023 139.203V146H140.077V133.156H141.648L141.941 134.973H142.046C142.304 134.527 142.628 134.152 143.019 133.848C143.409 133.543 143.847 133.312 144.331 133.156C144.816 133 145.331 132.922 145.878 132.922C146.855 132.922 147.671 133.105 148.327 133.473C148.991 133.832 149.472 134.383 149.769 135.125H149.874C150.296 134.383 150.874 133.832 151.609 133.473C152.343 133.105 153.148 132.922 154.023 132.922ZM218.75 132.922C220.352 132.922 221.629 133.473 222.582 134.574C223.535 135.676 224.012 137.332 224.012 139.543C224.012 141.004 223.793 142.23 223.355 143.223C222.918 144.215 222.301 144.965 221.504 145.473C220.715 145.98 219.781 146.234 218.703 146.234C218.023 146.234 217.426 146.145 216.91 145.965C216.395 145.785 215.953 145.543 215.586 145.238C215.219 144.934 214.914 144.602 214.672 144.242H214.531C214.555 144.547 214.582 144.914 214.613 145.344C214.652 145.773 214.672 146.148 214.672 146.469V151.742H212.715V133.156H214.32L214.578 135.055H214.672C214.922 134.664 215.227 134.309 215.586 133.988C215.945 133.66 216.383 133.402 216.898 133.215C217.422 133.02 218.039 132.922 218.75 132.922ZM218.41 134.562C217.52 134.562 216.801 134.734 216.254 135.078C215.715 135.422 215.32 135.938 215.07 136.625C214.82 137.305 214.688 138.16 214.672 139.191V139.566C214.672 140.652 214.789 141.57 215.023 142.32C215.266 143.07 215.66 143.641 216.207 144.031C216.762 144.422 217.504 144.617 218.434 144.617C219.23 144.617 219.895 144.402 220.426 143.973C220.957 143.543 221.352 142.945 221.609 142.18C221.875 141.406 222.008 140.52 222.008 139.52C222.008 138.004 221.711 136.801 221.117 135.91C220.531 135.012 219.629 134.562 218.41 134.562ZM242.005 127.766V133.215C242.005 133.527 241.998 133.844 241.982 134.164C241.966 134.477 241.939 134.766 241.9 135.031H242.029C242.295 134.578 242.63 134.199 243.037 133.895C243.451 133.582 243.92 133.348 244.443 133.191C244.966 133.027 245.521 132.945 246.107 132.945C247.138 132.945 247.998 133.109 248.685 133.438C249.38 133.766 249.9 134.273 250.244 134.961C250.595 135.648 250.771 136.539 250.771 137.633V146H248.849V137.762C248.849 136.691 248.603 135.891 248.111 135.359C247.627 134.828 246.88 134.562 245.873 134.562C244.92 134.562 244.158 134.746 243.587 135.113C243.025 135.473 242.619 136.004 242.369 136.707C242.127 137.41 242.005 138.27 242.005 139.285V146H240.06V127.766H242.005ZM278.503 139.555C278.503 140.609 278.366 141.551 278.093 142.379C277.82 143.207 277.425 143.906 276.909 144.477C276.394 145.047 275.769 145.484 275.034 145.789C274.308 146.086 273.484 146.234 272.562 146.234C271.702 146.234 270.913 146.086 270.195 145.789C269.484 145.484 268.866 145.047 268.343 144.477C267.827 143.906 267.425 143.207 267.136 142.379C266.855 141.551 266.714 140.609 266.714 139.555C266.714 138.148 266.952 136.953 267.429 135.969C267.905 134.977 268.585 134.223 269.468 133.707C270.359 133.184 271.417 132.922 272.644 132.922C273.816 132.922 274.839 133.184 275.714 133.707C276.597 134.23 277.28 134.988 277.765 135.98C278.257 136.965 278.503 138.156 278.503 139.555ZM268.73 139.555C268.73 140.586 268.866 141.48 269.14 142.238C269.413 142.996 269.835 143.582 270.405 143.996C270.976 144.41 271.71 144.617 272.609 144.617C273.499 144.617 274.23 144.41 274.8 143.996C275.378 143.582 275.804 142.996 276.077 142.238C276.351 141.48 276.487 140.586 276.487 139.555C276.487 138.531 276.351 137.648 276.077 136.906C275.804 136.156 275.382 135.578 274.812 135.172C274.241 134.766 273.503 134.562 272.597 134.562C271.261 134.562 270.28 135.004 269.655 135.887C269.038 136.77 268.73 137.992 268.73 139.555ZM298.665 144.641C298.985 144.641 299.313 144.613 299.649 144.559C299.985 144.504 300.259 144.438 300.47 144.359V145.871C300.243 145.973 299.927 146.059 299.52 146.129C299.122 146.199 298.731 146.234 298.348 146.234C297.669 146.234 297.052 146.117 296.497 145.883C295.942 145.641 295.497 145.234 295.161 144.664C294.833 144.094 294.669 143.305 294.669 142.297V134.68H292.841V133.73L294.68 132.969L295.454 130.18H296.626V133.156H300.387V134.68H296.626V142.238C296.626 143.043 296.809 143.645 297.177 144.043C297.552 144.441 298.048 144.641 298.665 144.641ZM326.795 139.555C326.795 140.609 326.659 141.551 326.385 142.379C326.112 143.207 325.717 143.906 325.202 144.477C324.686 145.047 324.061 145.484 323.327 145.789C322.6 146.086 321.776 146.234 320.854 146.234C319.995 146.234 319.205 146.086 318.487 145.789C317.776 145.484 317.159 145.047 316.635 144.477C316.12 143.906 315.717 143.207 315.428 142.379C315.147 141.551 315.006 140.609 315.006 139.555C315.006 138.148 315.245 136.953 315.721 135.969C316.198 134.977 316.877 134.223 317.76 133.707C318.651 133.184 319.709 132.922 320.936 132.922C322.108 132.922 323.131 133.184 324.006 133.707C324.889 134.23 325.573 134.988 326.057 135.98C326.549 136.965 326.795 138.156 326.795 139.555ZM317.022 139.555C317.022 140.586 317.159 141.48 317.432 142.238C317.705 142.996 318.127 143.582 318.698 143.996C319.268 144.41 320.002 144.617 320.901 144.617C321.791 144.617 322.522 144.41 323.092 143.996C323.67 143.582 324.096 142.996 324.37 142.238C324.643 141.48 324.78 140.586 324.78 139.555C324.78 138.531 324.643 137.648 324.37 136.906C324.096 136.156 323.674 135.578 323.104 135.172C322.534 134.766 321.795 134.562 320.889 134.562C319.553 134.562 318.573 135.004 317.948 135.887C317.33 136.77 317.022 137.992 317.022 139.555ZM346.395 151.766C344.707 151.766 343.406 151.449 342.492 150.816C341.578 150.191 341.121 149.312 341.121 148.18C341.121 147.375 341.375 146.688 341.883 146.117C342.398 145.547 343.109 145.168 344.016 144.98C343.68 144.824 343.391 144.59 343.148 144.277C342.914 143.965 342.797 143.605 342.797 143.199C342.797 142.73 342.926 142.32 343.184 141.969C343.449 141.609 343.852 141.266 344.391 140.938C343.719 140.664 343.172 140.203 342.75 139.555C342.336 138.898 342.129 138.137 342.129 137.27C342.129 136.348 342.32 135.562 342.703 134.914C343.086 134.258 343.641 133.758 344.367 133.414C345.094 133.07 345.973 132.898 347.004 132.898C347.23 132.898 347.457 132.91 347.684 132.934C347.918 132.949 348.141 132.977 348.352 133.016C348.562 133.047 348.746 133.086 348.902 133.133H353.309V134.387L350.941 134.68C351.176 134.984 351.371 135.352 351.527 135.781C351.684 136.211 351.762 136.688 351.762 137.211C351.762 138.492 351.328 139.512 350.461 140.27C349.594 141.02 348.402 141.395 346.887 141.395C346.527 141.395 346.16 141.363 345.785 141.301C345.402 141.512 345.109 141.746 344.906 142.004C344.711 142.262 344.613 142.559 344.613 142.895C344.613 143.145 344.688 143.344 344.836 143.492C344.992 143.641 345.215 143.75 345.504 143.82C345.793 143.883 346.141 143.914 346.547 143.914H348.809C350.207 143.914 351.277 144.207 352.02 144.793C352.77 145.379 353.145 146.234 353.145 147.359C353.145 148.781 352.566 149.871 351.41 150.629C350.254 151.387 348.582 151.766 346.395 151.766ZM346.453 150.242C347.516 150.242 348.395 150.133 349.09 149.914C349.793 149.703 350.316 149.395 350.66 148.988C351.012 148.59 351.188 148.113 351.188 147.559C351.188 147.043 351.07 146.652 350.836 146.387C350.602 146.129 350.258 145.957 349.805 145.871C349.352 145.777 348.797 145.73 348.141 145.73H345.914C345.336 145.73 344.832 145.82 344.402 146C343.973 146.18 343.641 146.445 343.406 146.797C343.18 147.148 343.066 147.586 343.066 148.109C343.066 148.805 343.359 149.332 343.945 149.691C344.531 150.059 345.367 150.242 346.453 150.242ZM346.957 139.977C347.887 139.977 348.586 139.742 349.055 139.273C349.523 138.805 349.758 138.121 349.758 137.223C349.758 136.262 349.52 135.543 349.043 135.066C348.566 134.582 347.863 134.34 346.934 134.34C346.043 134.34 345.355 134.59 344.871 135.09C344.395 135.582 344.156 136.305 344.156 137.258C344.156 138.133 344.398 138.805 344.883 139.273C345.367 139.742 346.059 139.977 346.957 139.977ZM374.326 132.922C374.584 132.922 374.853 132.938 375.134 132.969C375.416 132.992 375.666 133.027 375.884 133.074L375.638 134.879C375.427 134.824 375.193 134.781 374.935 134.75C374.677 134.719 374.435 134.703 374.209 134.703C373.693 134.703 373.205 134.809 372.744 135.02C372.291 135.223 371.892 135.52 371.548 135.91C371.205 136.293 370.935 136.758 370.74 137.305C370.545 137.844 370.447 138.445 370.447 139.109V146H368.49V133.156H370.107L370.318 135.523H370.4C370.666 135.047 370.986 134.613 371.361 134.223C371.736 133.824 372.17 133.508 372.662 133.273C373.162 133.039 373.716 132.922 374.326 132.922ZM395.765 132.945C397.296 132.945 398.433 133.289 399.175 133.977C399.917 134.664 400.288 135.762 400.288 137.27V146H398.87L398.495 144.102H398.402C398.042 144.57 397.667 144.965 397.277 145.285C396.886 145.598 396.433 145.836 395.917 146C395.409 146.156 394.784 146.234 394.042 146.234C393.261 146.234 392.566 146.098 391.956 145.824C391.355 145.551 390.878 145.137 390.527 144.582C390.183 144.027 390.011 143.324 390.011 142.473C390.011 141.191 390.519 140.207 391.534 139.52C392.55 138.832 394.097 138.457 396.175 138.395L398.39 138.301V137.516C398.39 136.406 398.152 135.629 397.675 135.184C397.198 134.738 396.527 134.516 395.659 134.516C394.987 134.516 394.347 134.613 393.737 134.809C393.128 135.004 392.55 135.234 392.003 135.5L391.405 134.023C391.984 133.727 392.648 133.473 393.398 133.262C394.148 133.051 394.937 132.945 395.765 132.945ZM398.366 139.672L396.409 139.754C394.808 139.816 393.679 140.078 393.023 140.539C392.366 141 392.038 141.652 392.038 142.496C392.038 143.23 392.261 143.773 392.706 144.125C393.152 144.477 393.741 144.652 394.476 144.652C395.616 144.652 396.55 144.336 397.277 143.703C398.003 143.07 398.366 142.121 398.366 140.855V139.672ZM422.981 132.922C424.583 132.922 425.86 133.473 426.813 134.574C427.766 135.676 428.243 137.332 428.243 139.543C428.243 141.004 428.024 142.23 427.587 143.223C427.149 144.215 426.532 144.965 425.735 145.473C424.946 145.98 424.012 146.234 422.934 146.234C422.255 146.234 421.657 146.145 421.141 145.965C420.626 145.785 420.184 145.543 419.817 145.238C419.45 144.934 419.145 144.602 418.903 144.242H418.762C418.786 144.547 418.813 144.914 418.845 145.344C418.884 145.773 418.903 146.148 418.903 146.469V151.742H416.946V133.156H418.552L418.809 135.055H418.903C419.153 134.664 419.458 134.309 419.817 133.988C420.177 133.66 420.614 133.402 421.13 133.215C421.653 133.02 422.27 132.922 422.981 132.922ZM422.641 134.562C421.751 134.562 421.032 134.734 420.485 135.078C419.946 135.422 419.552 135.938 419.302 136.625C419.052 137.305 418.919 138.16 418.903 139.191V139.566C418.903 140.652 419.02 141.57 419.255 142.32C419.497 143.07 419.891 143.641 420.438 144.031C420.993 144.422 421.735 144.617 422.665 144.617C423.462 144.617 424.126 144.402 424.657 143.973C425.188 143.543 425.583 142.945 425.841 142.18C426.106 141.406 426.239 140.52 426.239 139.52C426.239 138.004 425.942 136.801 425.348 135.91C424.762 135.012 423.86 134.562 422.641 134.562ZM446.237 127.766V133.215C446.237 133.527 446.229 133.844 446.213 134.164C446.198 134.477 446.17 134.766 446.131 135.031H446.26C446.526 134.578 446.862 134.199 447.268 133.895C447.682 133.582 448.151 133.348 448.674 133.191C449.198 133.027 449.752 132.945 450.338 132.945C451.37 132.945 452.229 133.109 452.916 133.438C453.612 133.766 454.131 134.273 454.475 134.961C454.827 135.648 455.002 136.539 455.002 137.633V146H453.08V137.762C453.08 136.691 452.834 135.891 452.342 135.359C451.858 134.828 451.112 134.562 450.104 134.562C449.151 134.562 448.389 134.746 447.819 135.113C447.256 135.473 446.85 136.004 446.6 136.707C446.358 137.41 446.237 138.27 446.237 139.285V146H444.291V127.766H446.237ZM476.605 132.922C477.699 132.922 478.637 133.164 479.418 133.648C480.199 134.133 480.797 134.812 481.211 135.688C481.625 136.555 481.832 137.57 481.832 138.734V139.941H472.961C472.984 141.449 473.359 142.598 474.086 143.387C474.812 144.176 475.836 144.57 477.156 144.57C477.969 144.57 478.688 144.496 479.312 144.348C479.938 144.199 480.586 143.98 481.258 143.691V145.402C480.609 145.691 479.965 145.902 479.324 146.035C478.691 146.168 477.941 146.234 477.074 146.234C475.84 146.234 474.762 145.984 473.84 145.484C472.926 144.977 472.215 144.234 471.707 143.258C471.199 142.281 470.945 141.086 470.945 139.672C470.945 138.289 471.176 137.094 471.637 136.086C472.105 135.07 472.762 134.289 473.605 133.742C474.457 133.195 475.457 132.922 476.605 132.922ZM476.582 134.516C475.543 134.516 474.715 134.855 474.098 135.535C473.48 136.215 473.113 137.164 472.996 138.383H479.793C479.785 137.617 479.664 136.945 479.43 136.367C479.203 135.781 478.855 135.328 478.387 135.008C477.918 134.68 477.316 134.516 476.582 134.516ZM503.623 132.922C503.88 132.922 504.15 132.938 504.431 132.969C504.712 132.992 504.962 133.027 505.181 133.074L504.935 134.879C504.724 134.824 504.49 134.781 504.232 134.75C503.974 134.719 503.732 134.703 503.505 134.703C502.99 134.703 502.502 134.809 502.041 135.02C501.587 135.223 501.189 135.52 500.845 135.91C500.502 136.293 500.232 136.758 500.037 137.305C499.841 137.844 499.744 138.445 499.744 139.109V146H497.787V133.156H499.404L499.615 135.523H499.697C499.962 135.047 500.283 134.613 500.658 134.223C501.033 133.824 501.466 133.508 501.959 133.273C502.459 133.039 503.013 132.922 503.623 132.922ZM519.964 144.781C519.964 144.234 520.097 143.848 520.362 143.621C520.628 143.387 520.952 143.27 521.335 143.27C521.734 143.27 522.07 143.387 522.343 143.621C522.616 143.848 522.753 144.234 522.753 144.781C522.753 145.32 522.616 145.715 522.343 145.965C522.07 146.207 521.734 146.328 521.335 146.328C520.952 146.328 520.628 146.207 520.362 145.965C520.097 145.715 519.964 145.32 519.964 144.781Z" fill="white"/>
</svg>
