<svg width="40" height="40" viewBox="0 0 40 40" fill="none" xmlns="http://www.w3.org/2000/svg">
<path d="M39.5 25.33V39.5H32.2183V27C32.2183 25.4725 32.209 23.6036 31.6206 22.1182C31.3207 21.3611 30.8618 20.678 30.1589 20.1877C29.4548 19.6966 28.5487 19.4286 27.4067 19.4286C26.2638 19.4286 25.3265 19.6519 24.5686 20.0714C23.8077 20.4926 23.2572 21.0953 22.8655 21.8053C22.0952 23.2018 21.9337 25.0265 21.9337 26.7771V39.5H14.6491V13.7943H21.6022V16.9371V17.4371H22.1022H22.2179H22.5195L22.6602 17.1705C23.685 15.228 26.2237 13.1243 30.0639 13.1243C34.1372 13.1243 36.4361 14.4546 37.7563 16.5516C39.1099 18.7016 39.5 21.7515 39.5 25.33ZM8.4546 39.5H1.16145V13.7943H8.4546V39.5ZM4.80303 9.15143C2.43377 9.15143 0.5 7.1843 0.5 4.80286C0.5 2.42749 2.4263 0.5 4.80303 0.5C7.17985 0.5 9.10606 2.42616 9.10606 4.80286C9.10606 7.1843 7.17229 9.15143 4.80303 9.15143Z" fill="white" stroke="black"/>
</svg>
