<svg width="32" height="42" viewBox="0 0 32 42" fill="none" xmlns="http://www.w3.org/2000/svg">
<path d="M15.61 9.87408C14.4738 9.87408 13.3631 10.211 12.4184 10.8423C11.4737 11.4735 10.7373 12.3707 10.3025 13.4204C9.86772 14.4702 9.75396 15.6253 9.97562 16.7396C10.1973 17.854 10.7444 18.8777 11.5479 19.6811C12.3513 20.4845 13.3749 21.0316 14.4893 21.2533C15.6037 21.475 16.7588 21.3612 17.8085 20.9264C18.8582 20.4916 19.7554 19.7553 20.3867 18.8105C21.0179 17.8658 21.3548 16.7551 21.3548 15.6189C21.3531 14.0958 20.7473 12.6356 19.6703 11.5586C18.5933 10.4816 17.1331 9.87582 15.61 9.87408ZM15.61 18.4913C15.0419 18.4913 14.4866 18.3228 14.0142 18.0072C13.5419 17.6916 13.1737 17.243 12.9563 16.7181C12.7389 16.1932 12.682 15.6157 12.7928 15.0585C12.9037 14.5013 13.1772 13.9895 13.5789 13.5878C13.9807 13.1861 14.4925 12.9125 15.0497 12.8017C15.6069 12.6908 16.1844 12.7477 16.7093 12.9651C17.2341 13.1825 17.6827 13.5507 17.9984 14.0231C18.314 14.4954 18.4824 15.0508 18.4824 15.6189C18.4816 16.3804 18.1787 17.1105 17.6402 17.649C17.1017 18.1875 16.3716 18.4904 15.61 18.4913Z" fill="white"/>
<path d="M26.6495 4.57117C23.92 1.84243 20.2766 0.221443 16.4222 0.0210687C12.5679 -0.179305 8.77601 1.05514 5.77834 3.48615C2.78066 5.91715 0.789732 9.3724 0.189802 13.185C-0.410127 16.9976 0.423473 20.8973 2.52972 24.1314L13.3826 40.7925C13.6242 41.1633 13.9544 41.4679 14.3434 41.6787C14.7324 41.8896 15.1679 42 15.6103 42C16.0528 42 16.4883 41.8896 16.8773 41.6787C17.2663 41.4679 17.5965 41.1633 17.838 40.7925L28.6913 24.1314C30.6456 21.1313 31.5093 17.5506 31.1376 13.9894C30.7659 10.4282 29.1813 7.103 26.6495 4.57117ZM26.2846 22.5635L15.6104 38.9497L4.93607 22.5635C1.66871 17.5477 2.36949 10.8353 6.60233 6.60223C7.78527 5.41926 9.18964 4.48087 10.7352 3.84065C12.2808 3.20042 13.9374 2.87091 15.6104 2.87091C17.2833 2.87091 18.9399 3.20042 20.4855 3.84065C22.0311 4.48087 23.4355 5.41926 24.6184 6.60223C28.8512 10.8353 29.5519 17.5477 26.2846 22.5635Z" fill="white"/>
</svg>
