<?xml version="1.0" encoding="utf-8"?>
<!-- Generator: Adobe Illustrator 25.0.1, SVG Export Plug-In . SVG Version: 6.00 Build 0)  -->
<svg version="1.1" id="Layer_1" xmlns="http://www.w3.org/2000/svg" xmlns:xlink="http://www.w3.org/1999/xlink" x="0px" y="0px"
	 viewBox="0 0 91 93" style="enable-background:new 0 0 91 93;" xml:space="preserve">
<style type="text/css">
	.st0{fill:#FFFFFF;enable-background:new    ;}
	.st1{fill-rule:evenodd;clip-rule:evenodd;fill:#FFFFFF;enable-background:new    ;}
	.st2{fill:none;stroke:#FFFFFF;stroke-width:2;enable-background:new    ;}
</style>
<path class="st0" d="M44.6,11.7c1.8-0.6,3.4-1.2,5.1-1.8c-0.5-1.6-0.9-3.3-1.5-5.4c2.2,0.4,4,0.7,5.9,1.1c0.5-1.7,1-3.4,1.6-5.6
	c1.7,1.5,3,2.7,4.4,3.9c1.3-1.2,2.6-2.4,4.4-3.9c0.6,2.1,1.2,3.9,1.7,5.6C68,5.3,69.7,4.9,72,4.5c-0.5,1.7-0.8,3.1-1.3,4.3
	c-0.3,0.9-0.1,1.2,0.8,1.4c1.3,0.4,2.6,0.8,4,1.3c-1.8,3.9-7.1,6.4-11.5,5.1c-2.7-0.8-5.1-0.8-7.8,0C51.9,18,47.3,15.8,44.6,11.7z
	 M74.5,12c-0.9-0.3-1.6-0.6-2.4-0.9c-1.3-0.4-2.3-0.5-3.4,0.8c-0.9,1.1-2.4,1.8-3.8,2.6c-0.8,0.4-1.8,0.6-2.8,0.9
	C66.2,17.5,71.3,16.2,74.5,12z M58.2,15.3c-3.2-0.8-5.9-1.8-7.6-4.3c-0.1-0.2-0.6-0.3-0.9-0.3c-1.3,0.3-2.6,0.7-4.1,1.1
	C48.8,16.1,53.6,17.5,58.2,15.3z M58.4,8.9c0.4-1.6,1.2-3.1,0.8-4.4c-0.4-1.2-1.9-2.2-2.9-3.2c-0.2,0.1-0.3,0.2-0.5,0.2
	c-0.3,1-0.6,2.1-0.8,3.1c0,0.6-0.1,1.4,0.2,1.7C56.1,7.2,57.2,8,58.4,8.9z M64,1.2c-1.1,1.1-2,2-2.9,2.9c-0.2,0.3-0.5,0.8-0.4,1.1
	c0.3,1.2,0.8,2.4,1.2,3.6C65.6,5.9,65.8,5.2,64,1.2z M49,5.5c0.5,1.3,0.8,2.4,1.2,3.5c0.2,0.4,0.6,0.9,0.9,0.9
	c1.2,0.3,2.5,0.4,3.8,0.5C54.1,6.1,53.8,5.8,49,5.5z M65,10.6c1.7-0.4,3.5-0.3,4.5-1.1s1.1-2.5,1.6-4C68,5.6,65.5,6,65.4,9.4
	C65.4,9.7,65.2,10,65,10.6z M68.9,10.7c-3.4-0.2-5.4,1.5-7.1,3.9C64.7,14.1,67,13.1,68.9,10.7z M58.2,14.5c-1.7-2.5-3.7-3.9-6.9-3.8
	C53,13.1,55.3,14.1,58.2,14.5z M60.2,5.8c-1.5,2.5-1.4,4.8-0.1,6.6C61.5,10.3,61.1,8.2,60.2,5.8z M61.3,12.8c2.6-1.2,3.5-3,3.8-5.7
	C62.9,8.6,61.5,10.2,61.3,12.8z M55.2,7.2c-0.2,2.6,1.3,4.7,3.6,5.4C58.6,10.2,57.2,8.6,55.2,7.2z"/>
<path class="st1" d="M54,66.7V93h-2V65h0.7L89,10l1.7,1.1L54,66.7z"/>
<path class="st2" d="M53.5,65L5,11.5h20.5l37.5,39"/>
</svg>
