<svg width="91" height="93" viewBox="0 0 91 93" fill="none" xmlns="http://www.w3.org/2000/svg">
<path d="M44.5714 11.6542C46.3276 11.0376 47.9461 10.477 49.6498 9.879C49.1977 8.26572 48.7259 6.59638 48.1427 4.51594C50.3379 4.92081 52.1727 5.25717 54.0206 5.59353C54.5186 3.88059 55.0166 2.16142 55.6325 0.0186866C57.3035 1.49493 58.673 2.70333 60.0753 3.93665C61.3662 2.77808 62.7227 1.55722 64.4461 0C65.0882 2.13651 65.6059 3.87436 66.117 5.5873C67.9518 5.25717 69.7407 4.9395 72.0014 4.53462C71.4903 6.25379 71.1823 7.593 70.6843 8.86369C70.3436 9.73574 70.5402 10.0596 71.4444 10.3026C72.7878 10.6638 74.0918 11.1497 75.4286 11.5919C73.6003 15.5161 68.3581 18.0077 63.9284 16.6934C61.1959 15.8836 58.8631 15.9023 56.1633 16.7059C51.9171 17.9641 47.2646 15.8214 44.5714 11.6542ZM74.4653 11.9532C73.5807 11.6231 72.8402 11.3179 72.0801 11.0687C70.7892 10.6389 69.7735 10.6078 68.7119 11.866C67.7749 12.9748 66.2677 13.6848 64.9244 14.4261C64.1119 14.8746 63.1289 15.0365 62.1264 15.3542C66.2219 17.5281 71.3134 16.1577 74.4653 11.9532ZM58.1881 15.3355C54.9773 14.5693 52.2841 13.5167 50.541 11.0189C50.4034 10.8258 49.9382 10.6888 49.6891 10.7448C48.3589 11.0749 47.0484 11.4736 45.633 11.8722C48.7521 16.1079 53.6274 17.4658 58.1881 15.3355ZM58.3716 8.91975C58.7255 7.33139 59.5577 5.78663 59.2038 4.54708C58.85 3.30753 57.3035 2.37943 56.2813 1.31429C56.1174 1.39527 55.9602 1.48247 55.7964 1.56345C55.5342 2.60367 55.2263 3.63767 55.0428 4.69035C54.951 5.2198 54.8593 5.97972 55.1673 6.29117C56.0716 7.20681 57.1659 7.95428 58.3716 8.91975ZM63.9743 1.21463C62.8799 2.30469 61.9429 3.19541 61.0714 4.14843C60.8224 4.4225 60.5668 4.90213 60.6454 5.20734C60.9731 6.43443 61.4383 7.63661 61.8511 8.85124C65.5731 5.94858 65.7959 5.23226 63.9743 1.21463ZM49.0077 5.4565C49.4598 6.76456 49.794 7.88576 50.2461 8.95713C50.4034 9.33086 50.7966 9.81048 51.157 9.88523C52.402 10.1531 53.6864 10.259 54.9642 10.4334C54.1254 6.12922 53.7978 5.84269 49.0077 5.4565ZM65.0424 10.5704C66.7461 10.1904 68.5547 10.2652 69.5245 9.44298C70.4877 8.63323 70.5991 6.92028 71.1299 5.48764C67.9846 5.59353 65.4748 5.96727 65.3897 9.37446C65.3766 9.66722 65.2193 9.95998 65.0424 10.5704ZM68.902 10.7012C65.4814 10.533 63.5483 12.165 61.7529 14.5693C64.7344 14.1333 67.0148 13.0993 68.902 10.7012ZM58.1947 14.5195C56.4975 11.9781 54.512 10.5766 51.2946 10.7012C53.0245 13.062 55.2656 14.0523 58.1947 14.5195ZM60.1736 5.83646C58.7189 8.34047 58.7386 10.6265 60.1212 12.4266C61.4907 10.2963 61.0845 8.22212 60.1736 5.83646ZM61.3466 12.7941C63.9808 11.6231 64.8851 9.74819 65.121 7.10092C62.8668 8.58962 61.517 10.2216 61.3466 12.7941ZM55.1935 7.20681C55.0297 9.77311 56.4451 11.8972 58.7648 12.6384C58.6206 10.2029 57.1921 8.60831 55.1935 7.20681Z" fill="white"/>
<path fill-rule="evenodd" clip-rule="evenodd" d="M54 66.7306L54 93H52V65H52.7453L89 10L90.6699 11.1007L54 66.7306Z" fill="white"/>
<path d="M53.5 65L5.00001 11.5L25.5 11.5L63 50.5" stroke="white" stroke-width="2"/>
</svg>
