<?xml version="1.0" encoding="utf-8"?>
<!-- Generator: Adobe Illustrator 25.0.1, SVG Export Plug-In . SVG Version: 6.00 Build 0)  -->
<svg version="1.1" id="Layer_1" xmlns="http://www.w3.org/2000/svg" xmlns:xlink="http://www.w3.org/1999/xlink" x="0px" y="0px"
	 viewBox="0 0 93 93" style="enable-background:new 0 0 93 93;" xml:space="preserve">
<style type="text/css">
	.st0{fill:#FFFFFF;}
</style>
<path class="st0" d="M31.07,49.62c1.76-0.62,3.37-1.18,5.08-1.78c-0.45-1.61-0.92-3.28-1.51-5.36c2.2,0.4,4.03,0.74,5.88,1.08
	c0.5-1.71,1-3.43,1.61-5.57c1.67,1.48,3.04,2.68,4.44,3.92c1.29-1.16,2.65-2.38,4.37-3.94c0.64,2.14,1.16,3.87,1.67,5.59
	c1.83-0.33,3.62-0.65,5.88-1.05c-0.51,1.72-0.82,3.06-1.32,4.33c-0.34,0.87-0.14,1.2,0.76,1.44c1.34,0.36,2.65,0.85,3.98,1.29
	c-1.83,3.92-7.07,6.42-11.5,5.1c-2.73-0.81-5.07-0.79-7.77,0.01C38.42,55.93,33.76,53.79,31.07,49.62z M60.97,49.92
	c-0.88-0.33-1.63-0.64-2.39-0.88c-1.29-0.43-2.31-0.46-3.37,0.8c-0.94,1.11-2.44,1.82-3.79,2.56c-0.81,0.45-1.8,0.61-2.8,0.93
	C52.72,55.5,57.81,54.13,60.97,49.92z M44.69,53.3c-3.21-0.77-5.9-1.82-7.65-4.32c-0.14-0.19-0.6-0.33-0.85-0.27
	c-1.33,0.33-2.64,0.73-4.06,1.13C35.25,54.08,40.13,55.43,44.69,53.3z M44.87,46.89c0.35-1.59,1.19-3.13,0.83-4.37
	c-0.35-1.24-1.9-2.17-2.92-3.23c-0.16,0.08-0.32,0.17-0.48,0.25c-0.26,1.04-0.57,2.07-0.75,3.13c-0.09,0.53-0.18,1.29,0.12,1.6
	C42.57,45.17,43.67,45.92,44.87,46.89z M50.47,39.18c-1.09,1.09-2.03,1.98-2.9,2.93c-0.25,0.27-0.5,0.75-0.43,1.06
	c0.33,1.23,0.79,2.43,1.21,3.64C52.07,43.92,52.3,43.2,50.47,39.18z M35.51,43.42c0.45,1.31,0.79,2.43,1.24,3.5
	c0.16,0.37,0.55,0.85,0.91,0.93c1.24,0.27,2.53,0.37,3.81,0.55C40.63,44.1,40.3,43.81,35.51,43.42z M51.54,48.54
	c1.7-0.38,3.51-0.31,4.48-1.13c0.96-0.81,1.07-2.52,1.61-3.96c-3.15,0.11-5.66,0.48-5.74,3.89C51.88,47.64,51.72,47.93,51.54,48.54z
	 M55.4,48.67c-3.42-0.17-5.35,1.46-7.15,3.87C51.23,52.1,53.51,51.07,55.4,48.67z M44.69,52.49c-1.7-2.54-3.68-3.94-6.9-3.82
	C39.52,51.03,41.77,52.02,44.69,52.49z M46.67,43.8c-1.45,2.5-1.43,4.79-0.05,6.59C47.99,48.26,47.58,46.19,46.67,43.8z
	 M47.85,50.76c2.63-1.17,3.54-3.05,3.77-5.69C49.37,46.56,48.02,48.19,47.85,50.76z M41.69,45.17c-0.16,2.57,1.25,4.69,3.57,5.43
	C45.12,48.17,43.69,46.58,41.69,45.17z"/>
</svg>
