<svg width="42" height="42" viewBox="0 0 42 42" fill="none" xmlns="http://www.w3.org/2000/svg">
<path d="M40.7991 4.36435L40.7297 4.321L31.959 0L22.4925 12.6221L26.8478 18.4295C26.7175 20.6197 25.7887 22.686 24.2373 24.2374C22.6858 25.7888 20.6195 26.7176 18.4293 26.8479L12.622 22.4926L0 31.9589L4.28504 40.6563L4.3211 40.7298L4.36455 40.799C4.59322 41.1675 4.91239 41.4713 5.29167 41.6815C5.67096 41.8917 6.09773 42.0014 6.53138 42H8.79453C13.1551 42 17.4731 41.1411 21.5017 39.4724C25.5304 37.8036 29.191 35.3577 32.2744 32.2743C35.3578 29.1909 37.8037 25.5303 39.4724 21.5016C41.1411 17.473 42 13.155 42 8.79443V6.53118C42.0014 6.09754 41.8918 5.67077 41.6815 5.29148C41.4713 4.9122 41.1676 4.59302 40.7991 4.36435ZM38.7588 8.79443C38.7588 25.3168 25.3168 38.7588 8.79453 38.7588H6.96326L4.09624 32.9386L12.6226 26.5438L17.3696 30.104H17.9097C21.1429 30.1003 24.2426 28.8144 26.5289 26.5281C28.8151 24.2419 30.101 21.1422 30.1047 17.909V17.3689L26.5445 12.622L32.9386 4.09614L38.7588 6.96367V8.79443Z" fill="white"/>
</svg>
