<svg width="290" height="47" viewBox="0 0 290 47" fill="none" xmlns="http://www.w3.org/2000/svg">
<path d="M290 26.5L265.25 40.7894L265.25 12.2106L290 26.5Z" fill="#9462FF"/>
<path d="M3.8 9.6H7.6L11.28 33.48L25.08 9.6H28.88L11.88 38H8.76L3.8 9.6ZM73.3056 17.12H76.8256L72.3856 38H68.8656L73.3056 17.12ZM75.0656 8.8H78.5856L77.6656 13.2H74.1456L75.0656 8.8ZM129.459 38.4C127.726 38.4 126.246 38.0133 125.019 37.24C123.792 36.44 122.859 35.3733 122.219 34.04C121.579 32.7067 121.259 31.2133 121.259 29.56C121.259 27.88 121.566 26.28 122.179 24.76C122.819 23.2133 123.712 21.84 124.859 20.64C126.006 19.44 127.339 18.4933 128.859 17.8C130.406 17.1067 132.086 16.76 133.899 16.76C135.259 16.76 136.459 16.9733 137.499 17.4C138.566 17.8267 139.392 18.4533 139.979 19.28C140.566 20.1067 140.859 21.1467 140.859 22.4C140.859 24.5067 139.926 26.1067 138.059 27.2C136.192 28.2933 133.326 28.84 129.459 28.84C128.739 28.84 127.912 28.8267 126.979 28.8C126.046 28.7467 124.966 28.6667 123.739 28.56L124.219 26.16C125.392 26.2133 126.392 26.2667 127.219 26.32C128.072 26.3733 128.859 26.4 129.579 26.4C131.606 26.4 133.206 26.2267 134.379 25.88C135.552 25.5333 136.392 25.0533 136.899 24.44C137.432 23.8267 137.699 23.1333 137.699 22.36C137.699 21.6667 137.526 21.1067 137.179 20.68C136.859 20.2533 136.392 19.9333 135.779 19.72C135.192 19.5067 134.486 19.4 133.659 19.4C132.326 19.4 131.112 19.68 130.019 20.24C128.952 20.8 128.019 21.56 127.219 22.52C126.446 23.48 125.846 24.5733 125.419 25.8C125.019 27 124.819 28.2533 124.819 29.56C124.819 30.6533 125.006 31.68 125.379 32.64C125.752 33.5733 126.326 34.3333 127.099 34.92C127.872 35.48 128.846 35.76 130.019 35.76C131.246 35.76 132.446 35.4533 133.619 34.84C134.792 34.2 135.712 33.3467 136.379 32.28L139.219 33.12C138.579 34.1333 137.739 35.04 136.699 35.84C135.659 36.64 134.512 37.2667 133.259 37.72C132.032 38.1733 130.766 38.4 129.459 38.4ZM186.043 17.12H189.683L193.003 34.92C193.856 33.8267 194.669 32.7333 195.443 31.64C196.216 30.52 196.936 29.4133 197.603 28.32L194.803 17.12H198.443L200.043 23.88C200.603 22.76 201.096 21.64 201.523 20.52C201.976 19.3733 202.349 18.24 202.643 17.12H206.003C205.496 18.96 204.816 20.8133 203.963 22.68C203.136 24.52 202.176 26.36 201.083 28.2L202.723 34.92C203.576 33.7467 204.389 32.5733 205.163 31.4C205.936 30.2 206.656 29 207.323 27.8C207.989 26.6 208.603 25.4133 209.163 24.24C209.749 23.04 210.256 21.8533 210.683 20.68C211.136 19.48 211.509 18.2933 211.803 17.12H215.163C214.203 20.5867 212.749 24.0667 210.803 27.56C208.856 31.0267 206.536 34.5067 203.843 38H200.043L198.563 32.12C197.896 33.1067 197.189 34.0933 196.443 35.08C195.696 36.04 194.923 37.0133 194.123 38H190.323L186.043 17.12Z" fill="white"/>
</svg>
